<svg width="18" height="20" viewBox="0 0 18 20" fill="none" xmlns="http://www.w3.org/2000/svg">
<path fill-rule="evenodd" clip-rule="evenodd" d="M9 0.25C9.38463 0.25 9.70163 0.53953 9.74495 0.912534L9.75 1V1.7912C13.125 2.16428 15.75 5.02558 15.75 8.5V14.5H16.5C16.9142 14.5 17.25 14.8358 17.25 15.25C17.25 15.6346 16.9605 15.9516 16.5875 15.995L16.5 16H1.5C1.08579 16 0.75 15.6642 0.75 15.25C0.75 14.8654 1.03953 14.5484 1.41253 14.505L1.5 14.5H2.25V8.5C2.25 5.02558 4.87504 2.16428 8.25 1.7912V1C8.25 0.585786 8.58579 0.25 9 0.25ZM3.75 14.5H14.25V8.5C14.25 5.66091 11.9964 3.34818 9.18049 3.25304L9 3.25C6.1005 3.25 3.75 5.6005 3.75 8.5V14.5Z" fill="white"/>
<path d="M12.1056 17.5182C11.8462 17.1952 11.3742 17.1436 11.0512 17.403C10.3364 17.9771 9.65669 18.25 9 18.25C8.34331 18.25 7.66363 17.9771 6.9488 17.403C6.62584 17.1436 6.15378 17.1952 5.89441 17.5182C5.63505 17.8411 5.6866 18.3132 6.00956 18.5725C6.97528 19.3481 7.97614 19.75 9 19.75C10.0239 19.75 11.0247 19.3481 11.9904 18.5725C12.3134 18.3132 12.365 17.8411 12.1056 17.5182Z" fill="white"/>
</svg>
