<svg width="16" height="17" viewBox="0 0 16 17" fill="none" xmlns="http://www.w3.org/2000/svg">
<path fill-rule="evenodd" clip-rule="evenodd" d="M9.22022 1.09621C9.2207 1.09649 9.22118 1.09677 9.22166 1.09705L13.3441 3.48054C13.3553 3.48706 13.3664 3.49398 13.3772 3.50127L13.3954 3.51355C13.7549 3.75624 14.0511 3.95615 14.279 4.13667C14.5144 4.32318 14.7173 4.51937 14.862 4.76975C15.01 5.02576 15.0709 5.29241 15.0989 5.57675C15.125 5.84283 15.125 6.16307 15.125 6.53669V10.9233C15.125 11.2969 15.125 11.6172 15.0989 11.8832C15.0709 12.1676 15.01 12.4342 14.862 12.6903C14.7173 12.9406 14.5144 13.1368 14.279 13.3233C14.0511 13.5038 13.755 13.7038 13.3954 13.9464L13.3772 13.9587C13.3664 13.966 13.3553 13.9729 13.3441 13.9795L9.22166 16.3629C9.22121 16.3632 9.22075 16.3635 9.22029 16.3637C8.80572 16.606 8.29479 16.71 7.81531 16.71C7.33497 16.71 6.82298 16.6056 6.4059 16.3644L2.28095 13.9795C2.26966 13.9729 2.2586 13.966 2.2478 13.9587L2.22953 13.9464C1.87005 13.7038 1.57381 13.5038 1.34587 13.3231C1.11027 13.1363 0.907351 12.9398 0.762655 12.6887C0.614827 12.4322 0.554026 12.165 0.526115 11.8798C0.499976 11.6128 0.499987 11.2913 0.500001 10.9158V6.53669C0.499987 6.16307 0.499975 5.84283 0.526138 5.57675C0.554098 5.29241 0.615025 5.02576 0.763006 4.76975C0.907737 4.51937 1.11059 4.32318 1.34602 4.13667C1.57389 3.95615 1.87006 3.75623 2.22961 3.51355L2.2478 3.50127C2.2586 3.49398 2.26966 3.48706 2.28095 3.48054L6.4059 1.09556C6.40588 1.09557 6.40592 1.09555 6.4059 1.09556C6.82297 0.854379 7.33499 0.75 7.81531 0.75C8.29476 0.75 8.80566 0.853994 9.22022 1.09621ZM7.81531 1.875C7.48003 1.875 7.17452 1.95064 6.9691 2.06944L2.86099 4.44467C2.48758 4.69674 2.23208 4.86996 2.04461 5.01848C1.85816 5.1662 1.77977 5.25876 1.737 5.33275C1.69748 5.40112 1.66465 5.49447 1.64574 5.68684C1.62563 5.89137 1.625 6.15595 1.625 6.5625V10.89C1.625 11.2984 1.62562 11.5645 1.64576 11.7702C1.66473 11.964 1.69768 12.0581 1.73735 12.1269C1.78015 12.2012 1.85848 12.2938 2.04476 12.4415C2.23215 12.5901 2.48756 12.7632 2.86099 13.0153L6.96905 15.3905C7.17447 15.5093 7.48003 15.585 7.81531 15.585C8.15094 15.585 8.45315 15.5092 8.65334 15.3921L8.65595 15.3905L12.764 13.0153C13.1374 12.7633 13.3929 12.59 13.5804 12.4415C13.7668 12.2938 13.8452 12.2012 13.888 12.1273C13.9275 12.0589 13.9603 11.9655 13.9793 11.7732C13.9994 11.5686 14 11.3041 14 10.8975V6.5625C14 6.15595 13.9994 5.89137 13.9793 5.68684C13.9603 5.49447 13.9275 5.40112 13.888 5.33275C13.8452 5.25876 13.7668 5.1662 13.5804 5.01848C13.3929 4.86996 13.1374 4.69674 12.764 4.44467L8.65333 2.06795C8.45315 1.95077 8.15094 1.875 7.81531 1.875Z" fill="#595E72"/>
<path fill-rule="evenodd" clip-rule="evenodd" d="M7.8125 7.0425C6.88052 7.0425 6.125 7.79802 6.125 8.73C6.125 9.66198 6.88052 10.4175 7.8125 10.4175C8.74448 10.4175 9.5 9.66198 9.5 8.73C9.5 7.79802 8.74448 7.0425 7.8125 7.0425ZM5 8.73C5 7.1767 6.2592 5.9175 7.8125 5.9175C9.3658 5.9175 10.625 7.1767 10.625 8.73C10.625 10.2833 9.3658 11.5425 7.8125 11.5425C6.2592 11.5425 5 10.2833 5 8.73Z" fill="#595E72"/>
</svg>
