<svg width="14" height="13" viewBox="0 0 14 13" fill="none" xmlns="http://www.w3.org/2000/svg">
<path d="M6.33667 0.757253C6.61807 0.223894 7.38193 0.223895 7.66334 0.757254L9.12028 3.51867C9.2288 3.72435 9.42659 3.86806 9.65574 3.90771L12.7322 4.44002C13.3264 4.54283 13.5625 5.26931 13.1422 5.70176L10.9661 7.94071C10.8041 8.10748 10.7285 8.34 10.7616 8.57019L11.206 11.6606C11.2919 12.2575 10.6739 12.7065 10.1327 12.4404L7.33094 11.0627C7.12224 10.9601 6.87776 10.9601 6.66906 11.0627L3.86725 12.4404C3.32609 12.7065 2.70812 12.2575 2.79396 11.6606L3.23839 8.57019C3.27149 8.34 3.19594 8.10748 3.03386 7.94071L0.857813 5.70175C0.437516 5.26931 0.673563 4.54283 1.26778 4.44002L4.34426 3.90771C4.57341 3.86806 4.7712 3.72435 4.87972 3.51867L6.33667 0.757253Z" fill="#797F8A"/>
</svg>
