<svg width="18" height="18" viewBox="0 0 18 18" fill="none" xmlns="http://www.w3.org/2000/svg">
<path fill-rule="evenodd" clip-rule="evenodd" d="M10.1163 1.49132C10.5421 1.06552 11.1449 0.9375 11.7975 0.9375H14.8275C15.4801 0.9375 16.0829 1.06552 16.5087 1.49132C16.9345 1.91711 17.0625 2.51991 17.0625 3.1725V6.2025C17.0625 6.85509 16.9345 7.45789 16.5087 7.88369C16.0829 8.30948 15.4801 8.4375 14.8275 8.4375H11.7975C11.1449 8.4375 10.5421 8.30948 10.1163 7.88369C9.69052 7.45789 9.5625 6.85509 9.5625 6.2025V3.1725C9.5625 2.51991 9.69052 1.91711 10.1163 1.49132ZM10.9118 2.28681C10.7995 2.39914 10.6875 2.63259 10.6875 3.1725V6.2025C10.6875 6.74241 10.7995 6.97586 10.9118 7.08819C11.0241 7.20052 11.2576 7.3125 11.7975 7.3125H14.8275C15.3674 7.3125 15.6009 7.20052 15.7132 7.08819C15.8255 6.97586 15.9375 6.74241 15.9375 6.2025V3.1725C15.9375 2.63259 15.8255 2.39914 15.7132 2.28681C15.6009 2.17448 15.3674 2.0625 14.8275 2.0625H11.7975C11.2576 2.0625 11.0241 2.17448 10.9118 2.28681Z" fill="#E7AB21"/>
<path fill-rule="evenodd" clip-rule="evenodd" d="M1.51545 1.42544C1.94083 1.04749 2.53234 0.9375 3.1725 0.9375H6.2025C6.84266 0.9375 7.43417 1.04749 7.85955 1.42544C8.30189 1.81846 8.4375 2.38385 8.4375 2.985V6.39C8.4375 6.99073 8.30207 7.55698 7.85873 7.94935C7.43254 8.32653 6.84059 8.43381 6.20083 8.43H3.1725C2.53434 8.43 1.94228 8.32263 1.51627 7.9456C1.07257 7.55292 0.9375 6.98623 0.9375 6.3825V2.985C0.9375 2.38385 1.07311 1.81846 1.51545 1.42544ZM2.26268 2.26644C2.16689 2.35154 2.0625 2.52865 2.0625 2.985V6.3825C2.0625 6.84377 2.16743 7.01958 2.26186 7.10315C2.37397 7.20237 2.61816 7.305 3.1725 7.305H6.20604C6.75807 7.30847 7.00162 7.2056 7.11315 7.1069C7.20793 7.02302 7.3125 6.84677 7.3125 6.39V2.985C7.3125 2.52865 7.20811 2.35154 7.11232 2.26644C6.99958 2.16626 6.75484 2.0625 6.2025 2.0625H3.1725C2.62016 2.0625 2.37542 2.16626 2.26268 2.26644Z" fill="#E7AB21"/>
<path fill-rule="evenodd" clip-rule="evenodd" d="M1.49132 10.1163C1.91711 9.69052 2.51991 9.5625 3.1725 9.5625H6.2025C6.85509 9.5625 7.45789 9.69052 7.88369 10.1163C8.30948 10.5421 8.4375 11.1449 8.4375 11.7975V14.8275C8.4375 15.4801 8.30948 16.0829 7.88369 16.5087C7.45789 16.9345 6.85509 17.0625 6.2025 17.0625H3.1725C2.51991 17.0625 1.91711 16.9345 1.49132 16.5087C1.06552 16.0829 0.9375 15.4801 0.9375 14.8275V11.7975C0.9375 11.1449 1.06552 10.5421 1.49132 10.1163ZM2.28681 10.9118C2.17448 11.0241 2.0625 11.2576 2.0625 11.7975V14.8275C2.0625 15.3674 2.17448 15.6009 2.28681 15.7132C2.39914 15.8255 2.63259 15.9375 3.1725 15.9375H6.2025C6.74241 15.9375 6.97586 15.8255 7.08819 15.7132C7.20052 15.6009 7.3125 15.3674 7.3125 14.8275V11.7975C7.3125 11.2576 7.20052 11.0241 7.08819 10.9118C6.97586 10.7995 6.74241 10.6875 6.2025 10.6875H3.1725C2.63259 10.6875 2.39914 10.7995 2.28681 10.9118Z" fill="#E7AB21"/>
<path fill-rule="evenodd" clip-rule="evenodd" d="M10.6875 11.625C10.6875 11.3143 10.9393 11.0625 11.25 11.0625H15.75C16.0607 11.0625 16.3125 11.3143 16.3125 11.625C16.3125 11.9357 16.0607 12.1875 15.75 12.1875H11.25C10.9393 12.1875 10.6875 11.9357 10.6875 11.625Z" fill="#E7AB21"/>
<path fill-rule="evenodd" clip-rule="evenodd" d="M10.6875 14.625C10.6875 14.3143 10.9393 14.0625 11.25 14.0625H15.75C16.0607 14.0625 16.3125 14.3143 16.3125 14.625C16.3125 14.9357 16.0607 15.1875 15.75 15.1875H11.25C10.9393 15.1875 10.6875 14.9357 10.6875 14.625Z" fill="#E7AB21"/>
</svg>
