<svg width="16" height="17" viewBox="0 0 16 17" fill="none" xmlns="http://www.w3.org/2000/svg">
<path fill-rule="evenodd" clip-rule="evenodd" d="M1.05382 9.92881C1.47961 9.50302 2.08241 9.375 2.735 9.375H5.765C6.41759 9.375 7.02039 9.50302 7.44619 9.92881C7.87198 10.3546 8 10.9574 8 11.61V14.64C8 15.2926 7.87198 15.8954 7.44619 16.3212C7.02039 16.747 6.41759 16.875 5.765 16.875H2.735C2.08241 16.875 1.47961 16.747 1.05382 16.3212C0.628017 15.8954 0.5 15.2926 0.5 14.64V11.61C0.5 10.9574 0.628017 10.3546 1.05382 9.92881ZM1.84931 10.7243C1.73698 10.8366 1.625 11.0701 1.625 11.61V14.64C1.625 15.1799 1.73698 15.4134 1.84931 15.5257C1.96164 15.638 2.19509 15.75 2.735 15.75H5.765C6.30491 15.75 6.53836 15.638 6.65069 15.5257C6.76302 15.4134 6.875 15.1799 6.875 14.64V11.61C6.875 11.0701 6.76302 10.8366 6.65069 10.7243C6.53836 10.612 6.30491 10.5 5.765 10.5H2.735C2.19509 10.5 1.96164 10.612 1.84931 10.7243Z" fill="#595E72"/>
<path fill-rule="evenodd" clip-rule="evenodd" d="M10.25 11.4375C10.25 11.1268 10.5018 10.875 10.8125 10.875H15.3125C15.6232 10.875 15.875 11.1268 15.875 11.4375C15.875 11.7482 15.6232 12 15.3125 12H10.8125C10.5018 12 10.25 11.7482 10.25 11.4375Z" fill="#595E72"/>
<path fill-rule="evenodd" clip-rule="evenodd" d="M10.25 14.4375C10.25 14.1268 10.5018 13.875 10.8125 13.875H15.3125C15.6232 13.875 15.875 14.1268 15.875 14.4375C15.875 14.7482 15.6232 15 15.3125 15H10.8125C10.5018 15 10.25 14.7482 10.25 14.4375Z" fill="#595E72"/>
<path fill-rule="evenodd" clip-rule="evenodd" d="M10.25 5.8125C10.25 5.50184 10.5018 5.25 10.8125 5.25H15.3125C15.6232 5.25 15.875 5.50184 15.875 5.8125C15.875 6.12316 15.6232 6.375 15.3125 6.375H10.8125C10.5018 6.375 10.25 6.12316 10.25 5.8125Z" fill="#595E72"/>
<path fill-rule="evenodd" clip-rule="evenodd" d="M10.25 2.8125C10.25 2.50184 10.5018 2.25 10.8125 2.25H15.3125C15.6232 2.25 15.875 2.50184 15.875 2.8125C15.875 3.12316 15.6232 3.375 15.3125 3.375H10.8125C10.5018 3.375 10.25 3.12316 10.25 2.8125Z" fill="#595E72"/>
<path fill-rule="evenodd" clip-rule="evenodd" d="M1.05382 1.30381C1.47961 0.878016 2.08241 0.75 2.735 0.75H5.765C6.41759 0.75 7.02039 0.878016 7.44619 1.30381C7.87198 1.72961 8 2.33241 8 2.985V6.015C8 6.66759 7.87198 7.27039 7.44619 7.69619C7.02039 8.12198 6.41759 8.25 5.765 8.25H2.735C2.08241 8.25 1.47961 8.12198 1.05382 7.69619C0.628017 7.27039 0.5 6.66759 0.5 6.015V2.985C0.5 2.33241 0.628017 1.72961 1.05382 1.30381ZM1.84931 2.09931C1.73698 2.21164 1.625 2.44509 1.625 2.985V6.015C1.625 6.55491 1.73698 6.78836 1.84931 6.90069C1.96164 7.01302 2.19509 7.125 2.735 7.125H5.765C6.30491 7.125 6.53836 7.01302 6.65069 6.90069C6.76302 6.78836 6.875 6.55491 6.875 6.015V2.985C6.875 2.44509 6.76302 2.21164 6.65069 2.09931C6.53836 1.98698 6.30491 1.875 5.765 1.875H2.735C2.19509 1.875 1.96164 1.98698 1.84931 2.09931Z" fill="#595E72"/>
</svg>
