<svg width="12" height="12" viewBox="0 0 12 12" fill="none" xmlns="http://www.w3.org/2000/svg">
<path fill-rule="evenodd" clip-rule="evenodd" d="M5.75 0.625C2.91954 0.625 0.625 2.91954 0.625 5.75C0.625 8.58046 2.91954 10.875 5.75 10.875C8.58046 10.875 10.875 8.58046 10.875 5.75C10.875 2.91954 8.58046 0.625 5.75 0.625ZM1.375 5.75C1.375 3.33375 3.33375 1.375 5.75 1.375C8.16625 1.375 10.125 3.33375 10.125 5.75C10.125 8.16625 8.16625 10.125 5.75 10.125C3.33375 10.125 1.375 8.16625 1.375 5.75Z" fill="#E7AB21"/>
<path d="M10.2652 9.73483C10.1187 9.58839 9.88128 9.58839 9.73483 9.73483C9.58839 9.88128 9.58839 10.1187 9.73483 10.2652L10.7348 11.2652C10.8813 11.4116 11.1187 11.4116 11.2652 11.2652C11.4116 11.1187 11.4116 10.8813 11.2652 10.7348L10.2652 9.73483Z" fill="#E7AB21"/>
</svg>
