<svg width="16" height="15" viewBox="0 0 16 15" fill="none" xmlns="http://www.w3.org/2000/svg">
<path d="M6.93866 1.0116C7.38891 0.158229 8.61109 0.158231 9.06134 1.01161L10.4755 3.69194C10.6491 4.02103 10.9656 4.25096 11.3322 4.3144L14.3184 4.83108C15.2691 4.99558 15.6468 6.15794 14.9743 6.84986L12.8622 9.02307C12.6029 9.2899 12.482 9.66194 12.5349 10.0302L12.9663 13.0299C13.1037 13.9849 12.1149 14.7033 11.249 14.2776L8.5295 12.9404C8.19559 12.7762 7.80441 12.7762 7.4705 12.9404L4.75097 14.2776C3.88511 14.7033 2.89634 13.9849 3.03369 13.0299L3.46507 10.0302C3.51803 9.66193 3.39715 9.2899 3.13782 9.02307L1.02567 6.84986C0.353199 6.15794 0.730872 4.99558 1.68161 4.83108L4.66776 4.3144C5.0344 4.25096 5.35087 4.02103 5.5245 3.69194L6.93866 1.0116Z" fill="#E7AB21"/>
</svg>
