<svg width="16" height="16" viewBox="0 0 16 16" fill="none" xmlns="http://www.w3.org/2000/svg">
<path fill-rule="evenodd" clip-rule="evenodd" d="M9.5 1.0625C9.5 0.75184 9.75184 0.5 10.0625 0.5H14.5625C14.8732 0.5 15.125 0.75184 15.125 1.0625V5.5625C15.125 5.87316 14.8732 6.125 14.5625 6.125C14.2518 6.125 14 5.87316 14 5.5625V1.625H10.0625C9.75184 1.625 9.5 1.37316 9.5 1.0625Z" fill="#595E72"/>
<path fill-rule="evenodd" clip-rule="evenodd" d="M14.9602 0.664752C15.1799 0.884422 15.1799 1.24058 14.9602 1.46025L9.33525 7.08525C9.11558 7.30492 8.75942 7.30492 8.53975 7.08525C8.32008 6.86558 8.32008 6.50942 8.53975 6.28975L14.1648 0.664752C14.3844 0.445083 14.7406 0.445083 14.9602 0.664752Z" fill="#595E72"/>
<path fill-rule="evenodd" clip-rule="evenodd" d="M7.08525 8.53975C7.30492 8.75942 7.30492 9.11558 7.08525 9.33525L1.46025 14.9602C1.24058 15.1799 0.884422 15.1799 0.664752 14.9602C0.445083 14.7406 0.445083 14.3844 0.664752 14.1648L6.28975 8.53975C6.50942 8.32008 6.86558 8.32008 7.08525 8.53975Z" fill="#595E72"/>
<path fill-rule="evenodd" clip-rule="evenodd" d="M1.0625 9.5C1.37316 9.5 1.625 9.75184 1.625 10.0625V14H5.5625C5.87316 14 6.125 14.2518 6.125 14.5625C6.125 14.8732 5.87316 15.125 5.5625 15.125H1.0625C0.75184 15.125 0.5 14.8732 0.5 14.5625V10.0625C0.5 9.75184 0.75184 9.5 1.0625 9.5Z" fill="#595E72"/>
</svg>
